<svg id="Layer_1" enable-background="new 0 0 512 512" height="512" viewBox="0 0 512 512" width="512" xmlns="http://www.w3.org/2000/svg"><path d="m192 305.69v174.31c0 8.84-7.16 16-16 16h-160c-8.84 0-16-7.16-16-16v-174.31c0-38.55 17.79-74.52 48-97.88v-79.81c0-8.84 7.16-16 16-16h64c8.84 0 16 7.16 16 16v79.81c30.21 23.36 48 59.33 48 97.88z" fill="#acebda"/><path d="m144 330.69v149.31c0 8.84-7.16 16-16 16h-112c-8.84 0-16-7.16-16-16v-174.31c0-38.55 17.79-74.52 48-97.88v-79.81c0-8.84 7.16-16 16-16h16c8.84 0 16 7.16 16 16v104.81c30.21 23.36 48 59.33 48 97.88z" fill="#bdefe1"/><path d="m192 312v104c0 8.84-7.16 16-16 16h-160c-8.84 0-16-7.16-16-16v-104c0-8.84 7.16-16 16-16h160c8.84 0 16 7.16 16 16z" fill="#90c94f"/><path d="m132 296v60c0 8.84-7.16 16-16 16h-116v-60c0-8.84 7.16-16 16-16z" fill="#99d856"/><path d="m352 305.69v174.31c0 8.84-7.16 16-16 16h-160c-8.84 0-16-7.16-16-16v-174.31c0-38.55 17.79-74.52 48-97.88v-79.81c0-8.84 7.16-16 16-16h64c8.84 0 16 7.16 16 16v79.81c30.21 23.36 48 59.33 48 97.88z" fill="#acebda"/><path d="m304 330.69v149.31c0 8.84-7.16 16-16 16h-112c-8.84 0-16-7.16-16-16v-174.31c0-38.55 17.79-74.52 48-97.88v-79.81c0-8.84 7.16-16 16-16h16c8.84 0 16 7.16 16 16v104.81c30.21 23.36 48 59.33 48 97.88z" fill="#bdefe1"/><path d="m352 312v104c0 8.84-7.16 16-16 16h-160c-8.84 0-16-7.16-16-16v-104c0-8.84 7.16-16 16-16h160c8.84 0 16 7.16 16 16z" fill="#efd66c"/><path d="m292 296v60c0 8.84-7.16 16-16 16h-116v-60c0-8.84 7.16-16 16-16z" fill="#ffe773"/><path d="m512 305.69v174.31c0 8.84-7.16 16-16 16h-160c-8.84 0-16-7.16-16-16v-174.31c0-38.55 17.79-74.52 48-97.88v-79.81c0-8.84 7.16-16 16-16h64c8.84 0 16 7.16 16 16v79.81c30.21 23.36 48 59.33 48 97.88z" fill="#acebda"/><path d="m464 330.69v149.31c0 8.84-7.16 16-16 16h-112c-8.84 0-16-7.16-16-16v-174.31c0-38.55 17.79-74.52 48-97.88v-79.81c0-8.84 7.16-16 16-16h16c8.84 0 16 7.16 16 16v104.81c30.21 23.36 48 59.33 48 97.88z" fill="#bdefe1"/><path d="m512 312v104c0 8.84-7.16 16-16 16h-160c-8.84 0-16-7.16-16-16v-104c0-8.84 7.16-16 16-16h160c8.84 0 16 7.16 16 16z" fill="#ea8692"/><path d="m452 296v60c0 8.84-7.16 16-16 16h-116v-60c0-8.84 7.16-16 16-16z" fill="#fe929f"/><path d="m160 32v72c0 22.06-17.94 40-40 40h-48c-22.06 0-40-17.94-40-40v-72c0-8.84 7.16-16 16-16h96c8.84 0 16 7.16 16 16z" fill="#999"/><path d="m112 16v40c0 22.06-17.94 40-40 40h-40v-64c0-8.84 7.16-16 16-16z" fill="#aaa"/><path d="m320 32v72c0 22.06-17.94 40-40 40h-48c-22.06 0-40-17.94-40-40v-72c0-8.84 7.16-16 16-16h96c8.84 0 16 7.16 16 16z" fill="#999"/><path d="m272 16v40c0 22.06-17.94 40-40 40h-40v-64c0-8.84 7.16-16 16-16z" fill="#aaa"/><path d="m480 32v72c0 22.06-17.94 40-40 40h-48c-22.06 0-40-17.94-40-40v-72c0-8.84 7.16-16 16-16h96c8.84 0 16 7.16 16 16z" fill="#999"/><path d="m432 16v40c0 22.06-17.94 40-40 40h-40v-64c0-8.84 7.16-16 16-16z" fill="#aaa"/></svg>