<svg height="512" viewBox="0 0 512 512" width="512" xmlns="http://www.w3.org/2000/svg"><g id="Fill_out_line" data-name="Fill out line"><path d="m488 188v284a16 16 0 0 1 -16 16h-256a16 16 0 0 1 -16-16v-284a28 28 0 0 1 28-28 28 28 0 0 0 28-28v-28h176v28a28 28 0 0 0 28 28 28 28 0 0 1 28 28z" fill="#ad7d4d"/><rect fill="#d3e1e9" height="80" rx="16" width="224" x="232" y="24"/><path d="m200 200h288v240h-288z" fill="#8acce7"/><circle cx="344" cy="280" fill="#d3e1e9" r="48"/><rect fill="#2d80b3" height="80" rx="40" width="176" x="16" y="408"/><path d="m104 488v-80h48a40 40 0 0 1 40 40 40 40 0 0 1 -40 40z" fill="#d3e1e9"/><path d="m272 416a71.96193 71.96193 0 1 1 -11.04-38.34009 72.00575 72.00575 0 0 1 11.04 38.34009z" fill="#eebe33"/><path d="m260.96 377.65991-99.30009 99.30009a72.67818 72.67818 0 0 1 -22.61991-22.62l99.30009-99.3a72.67907 72.67907 0 0 1 22.61991 22.61991z" fill="#e88604"/><path d="m267.72363 373.38818a81.13022 81.13022 0 0 0 -25.12011-25.11767 80.03076 80.03076 0 0 0 -120.99366 51.72949h-65.60986a48 48 0 0 0 0 96h96a48.011 48.011 0 0 0 20.7981-4.75391 80.02291 80.02291 0 0 0 94.92553-117.85791zm-17.18335 3.37769-89.77441 89.77441a65.24543 65.24543 0 0 1 -11.30615-11.30615l89.77441-89.77441a65.24543 65.24543 0 0 1 11.30615 11.30615zm-50.54028-24.76587a63.98934 63.98934 0 0 1 24.99316 5.07288l-83.91992 83.9198a64.01658 64.01658 0 0 1 58.92676-88.99268zm-176 96a32.03635 32.03635 0 0 1 32-32h40v64h-40a32.03635 32.03635 0 0 1 -32-32zm88 32v-64h8a79.83694 79.83694 0 0 0 12.27637 42.61182 81.15459 81.15459 0 0 0 19.772 21.38659c-.01611 0-.03223.00159-.04834.00159zm88 0a63.98934 63.98934 0 0 1 -24.99316-5.07288l83.91992-83.9198a64.01658 64.01658 0 0 1 -58.92676 88.99268z"/><path d="m460 152a20.0226 20.0226 0 0 1 -20-20v-20a24.02718 24.02718 0 0 0 24-24v-48a24.02718 24.02718 0 0 0 -24-24h-192a24.02718 24.02718 0 0 0 -24 24v48a24.02718 24.02718 0 0 0 24 24v20a20.0226 20.0226 0 0 1 -20 20 36.04061 36.04061 0 0 0 -36 36v132h16v-112h272v224h-184v16h184v24a8.00917 8.00917 0 0 1 -8 8h-200v16h200a24.02718 24.02718 0 0 0 24-24v-284a36.04061 36.04061 0 0 0 -36-36zm-220-64v-48a8.00917 8.00917 0 0 1 8-8h192a8.00917 8.00917 0 0 1 8 8v48a8.00917 8.00917 0 0 1 -8 8h-8v-48h-16v48h-16v-48h-16v48h-16v-48h-16v48h-16v-48h-16v48h-16v-48h-16v48h-16v-48h-16v48h-8a8.00917 8.00917 0 0 1 -8-8zm-32 104v-4a20.0226 20.0226 0 0 1 20-20 36.04061 36.04061 0 0 0 36-36v-20h160v20a36.04061 36.04061 0 0 0 36 36 20.0226 20.0226 0 0 1 20 20v4z"/><path d="m344 224a56 56 0 1 0 56 56 56.06322 56.06322 0 0 0 -56-56zm0 96a40 40 0 1 1 40-40 40.04552 40.04552 0 0 1 -40 40z"/><path d="m352 256h-16v16h-16v16h16v16h16v-16h16v-16h-16z"/><path d="m400 344h32v16h-32z"/><path d="m320 344h64v16h-64z"/><path d="m288 344h16v16h-16z"/><path d="m400 376h32v16h-32z"/><path d="m344 376h40v16h-40z"/><path d="m288 376h40v16h-40z"/></g></svg>