<?xml version="1.0" encoding="iso-8859-1"?>
<!-- Generator: Adobe Illustrator 19.0.0, SVG Export Plug-In . SVG Version: 6.00 Build 0)  -->
<svg version="1.1" id="Capa_1" xmlns="http://www.w3.org/2000/svg" xmlns:xlink="http://www.w3.org/1999/xlink" x="0px" y="0px"
	 viewBox="0 0 512.02 512.02" style="enable-background:new 0 0 512.02 512.02;" xml:space="preserve">
<path style="fill:#2196F3;" d="M488.49,256.02l22.4-58.592c2.466-6.47,0.49-13.793-4.896-18.144l-48.64-39.488l-9.856-61.984
	c-1.094-6.842-6.467-12.203-13.312-13.28l-61.952-9.856L332.81,5.972c-4.361-5.415-11.72-7.393-18.208-4.896L256.01,23.54
	L197.418,1.076c-6.482-2.504-13.839-0.539-18.208,4.864l-39.424,48.736l-61.984,9.856c-6.832,1.09-12.19,6.448-13.28,13.28
	l-9.856,61.984L5.93,179.22c-5.375,4.36-7.337,11.681-4.864,18.144L23.53,256.02l-22.4,58.592c-2.466,6.47-0.49,13.793,4.896,18.144
	l48.704,39.488l9.856,61.952c1.077,6.845,6.438,12.218,13.28,13.312l61.984,9.856l39.36,48.704
	c4.351,5.386,11.674,7.362,18.144,4.896L256.01,488.5l58.592,22.4c1.825,0.721,3.766,1.101,5.728,1.12
	c4.824-0.011,9.386-2.198,12.416-5.952l39.488-48.704l61.952-9.856c6.855-1.081,12.231-6.457,13.312-13.312l9.856-61.952
	l48.704-39.424c5.386-4.351,7.362-11.674,4.896-18.144L488.49,256.02z"/>
<path d="M320.33,512.02c-1.957-0.003-3.898-0.361-5.728-1.056L256.01,488.5l-58.592,22.4c-6.463,2.473-13.784,0.511-18.144-4.864
	l-39.488-48.672l-61.984-9.856c-6.832-1.09-12.19-6.448-13.28-13.28l-9.856-61.984L5.93,332.82
	c-5.375-4.36-7.337-11.681-4.864-18.144L23.53,256.02l-22.4-58.592c-2.519-6.468-0.58-13.822,4.8-18.208l48.736-39.424l9.856-61.984
	c1.09-6.832,6.448-12.19,13.28-13.28l61.984-9.856L179.21,5.94c4.369-5.403,11.726-7.368,18.208-4.864L256.01,23.54l58.592-22.4
	c6.468-2.519,13.822-0.58,18.208,4.8l39.488,48.736l61.984,9.856c6.832,1.09,12.19,6.448,13.28,13.28l9.856,61.984l48.672,39.424
	c5.375,4.36,7.337,11.681,4.864,18.144L488.49,256.02l22.4,58.592c2.473,6.463,0.511,13.784-4.864,18.144l-48.736,39.488
	l-9.856,61.984c-1.09,6.832-6.448,12.19-13.28,13.28l-61.984,9.856L332.81,506.1C329.76,509.86,325.172,512.037,320.33,512.02z
	 M256.01,455.348c1.96,0.009,3.901,0.378,5.728,1.088l53.472,20.48l36.032-44.48c2.486-3.068,6.02-5.108,9.92-5.728l56.544-8.992
	l8.992-56.544c0.62-3.9,2.66-7.434,5.728-9.92l44.384-36.032l-20.48-53.472c-1.439-3.683-1.439-7.773,0-11.456l20.48-53.472
	l-44.48-36.032c-3.068-2.486-5.108-6.02-5.728-9.92l-8.992-56.544l-56.544-8.992c-3.9-0.62-7.434-2.66-9.92-5.728L315.21,35.22
	L261.738,55.7c-3.688,1.414-7.768,1.414-11.456,0L196.81,35.22l-36.032,44.384c-2.486,3.068-6.02,5.108-9.92,5.728l-56.544,8.992
	l-8.992,56.544c-0.62,3.9-2.66,7.434-5.728,9.92L35.21,196.82l20.48,53.472c1.439,3.683,1.439,7.773,0,11.456L35.21,315.22
	l44.48,36.032c3.068,2.486,5.108,6.02,5.728,9.92l8.992,56.544l56.544,8.992c3.9,0.62,7.434,2.66,9.92,5.728l35.936,44.384
	l53.472-20.48C252.115,455.663,254.056,455.326,256.01,455.348z"/>
<g>
	<path style="fill:#FAFAFA;" d="M80.01,336.02c-8.837,0-16-7.163-16-16v-128c0-8.837,7.163-16,16-16h32c8.837,0,16,7.163,16,16
		s-7.163,16-16,16h-16v112C96.01,328.857,88.847,336.02,80.01,336.02z"/>
	<path style="fill:#FAFAFA;" d="M112.01,272.02h-32c-8.837,0-16-7.163-16-16c0-8.837,7.163-16,16-16h32c8.837,0,16,7.163,16,16
		C128.01,264.857,120.847,272.02,112.01,272.02z"/>
	<path style="fill:#FAFAFA;" d="M304.01,336.02c-8.837,0-16-7.163-16-16v-128c0-8.837,7.163-16,16-16h32c8.837,0,16,7.163,16,16
		s-7.163,16-16,16h-16v112C320.01,328.857,312.847,336.02,304.01,336.02z"/>
	<path style="fill:#FAFAFA;" d="M336.01,272.02h-32c-8.837,0-16-7.163-16-16c0-8.837,7.163-16,16-16h32c8.837,0,16,7.163,16,16
		C352.01,264.857,344.847,272.02,336.01,272.02z"/>
	<path style="fill:#FAFAFA;" d="M336.01,336.02h-32c-8.837,0-16-7.163-16-16s7.163-16,16-16h32c8.837,0,16,7.163,16,16
		S344.847,336.02,336.01,336.02z"/>
	<path style="fill:#FAFAFA;" d="M400.01,336.02c-8.837,0-16-7.163-16-16v-128c0-8.837,7.163-16,16-16h32c8.837,0,16,7.163,16,16
		s-7.163,16-16,16h-16v112C416.01,328.857,408.847,336.02,400.01,336.02z"/>
	<path style="fill:#FAFAFA;" d="M432.01,272.02h-32c-8.837,0-16-7.163-16-16c0-8.837,7.163-16,16-16h32c8.837,0,16,7.163,16,16
		C448.01,264.857,440.847,272.02,432.01,272.02z"/>
	<path style="fill:#FAFAFA;" d="M432.01,336.02h-32c-8.837,0-16-7.163-16-16s7.163-16,16-16h32c8.837,0,16,7.163,16,16
		S440.847,336.02,432.01,336.02z"/>
	<path style="fill:#FAFAFA;" d="M176.01,336.02c-8.837,0-16-7.163-16-16v-128c0-8.837,7.163-16,16-16h32c26.51,0,48,21.49,48,48
		s-21.49,48-48,48h-16v48C192.01,328.857,184.847,336.02,176.01,336.02z M192.01,240.02h16c8.837,0,16-7.163,16-16s-7.163-16-16-16
		h-16V240.02z"/>
	<path style="fill:#FAFAFA;" d="M240.01,336.02c-5.036,0-9.778-2.371-12.8-6.4l-48-64c-5.302-7.069-3.869-17.098,3.2-22.4
		c7.069-5.302,17.098-3.869,22.4,3.2l48,64c5.302,7.069,3.869,17.098-3.2,22.4C246.841,334.898,243.472,336.02,240.01,336.02
		L240.01,336.02z"/>
</g>
<g>
</g>
<g>
</g>
<g>
</g>
<g>
</g>
<g>
</g>
<g>
</g>
<g>
</g>
<g>
</g>
<g>
</g>
<g>
</g>
<g>
</g>
<g>
</g>
<g>
</g>
<g>
</g>
<g>
</g>
</svg>
