<svg id="Layer_1" enable-background="new 0 0 256 256" height="512" viewBox="0 0 256 256" width="512" xmlns="http://www.w3.org/2000/svg"><path d="m192.665 140.833c-10.048 13.596-20.509 26.806-31.293 39.838-3.478 4.203-6.864 8.514-10.403 12.674-5.612 7.793-14.104 12.76-23.608 12.76h-39.573c-16.898 0-30.597-15.702-30.597-35.072v14.115c0 19.37 13.699 35.072 30.597 35.072h39.573c9.504 0 17.996-4.967 23.608-12.76 3.539-4.16 6.925-8.471 10.403-12.674 10.784-13.032 21.245-26.241 31.293-39.838 2.334-3.159 4.719-6.421 5.708-10.222 1.046-4.021.163-7.189-1.973-9.408-1.089 1.922-2.42 3.735-3.735 5.515z" fill="#ebe7f2"/><g fill="#846f75"><path d="m197.747 133.137c-2.161-2.016-5.206-3.346-8.808-3.849-8.742-1.218-14.888 3.699-18.743 7.507-1.168 1.154-2.228 2.216-3.211 3.202-2.507 2.514-4.483 4.496-6.527 6.252v-88.417c0-8.782-7.145-15.926-15.926-15.926-4.342 0-8.283 1.747-11.159 4.574-1.297-7.487-7.84-13.2-15.692-13.2-8.782 0-15.926 7.144-15.926 15.926v5.551c-2.609-2.308-6.037-3.711-9.786-3.711-8.153 0-14.786 6.633-14.786 14.786v4.083c-2.378-1.966-5.427-3.149-8.746-3.149-7.579 0-13.746 6.166-13.746 13.746v104.635c0 20.717 14.847 37.572 33.097 37.572h39.572c9.945 0 19.263-4.998 25.577-13.716 2.135-2.512 4.237-5.105 6.271-7.615 1.358-1.676 2.717-3.351 4.089-5.009 11.696-14.136 21.96-27.202 31.378-39.946 2.34-3.167 4.992-6.757 6.117-11.079 1.267-4.866.185-9.205-3.045-12.217zm-1.793 10.958c-.882 3.386-3.128 6.426-5.3 9.366-9.362 12.67-19.571 25.666-31.208 39.729-1.383 1.671-2.752 3.359-4.121 5.048-2.037 2.512-4.143 5.11-6.261 7.6-.044.051-.085.104-.124.159-5.365 7.449-13.23 11.721-21.58 11.721h-39.572c-15.493 0-28.097-14.612-28.097-32.572v-104.634c0-4.822 3.923-8.746 8.746-8.746s8.746 3.923 8.746 8.746v34.436c0 1.381 1.119 2.5 2.5 2.5s2.5-1.119 2.5-2.5v-34.436-14.679c0-5.396 4.39-9.786 9.786-9.786s9.786 4.39 9.786 9.786v49.115c0 1.381 1.119 2.5 2.5 2.5s2.5-1.119 2.5-2.5v-49.115-16.627c0-6.024 4.901-10.926 10.926-10.926s10.926 4.901 10.926 10.926v8.626 57.116c0 1.381 1.119 2.5 2.5 2.5s2.5-1.119 2.5-2.5v-57.116c0-6.024 4.901-10.926 10.926-10.926s10.926 4.901 10.926 10.926v93.486c0 .926.513 1.777 1.331 2.21.82.433 1.811.378 2.576-.144 4.149-2.826 7.091-5.775 11.161-9.856.975-.978 2.024-2.031 3.184-3.175 4.996-4.934 9.483-6.82 14.538-6.113 2.578.36 4.684 1.243 6.089 2.553 1.877 1.751 2.421 4.208 1.616 7.302z"/><path d="m136.942 168.017h-20.409c-2.338 0-4.241 1.903-4.241 4.241v20.408c0 2.338 1.903 4.241 4.241 4.241h20.409c2.338 0 4.24-1.902 4.24-4.241v-20.408c0-2.338-1.903-4.241-4.24-4.241zm-.76 23.89h-18.89v-18.89h18.89z"/><circle cx="122.658" cy="178.426" r="2.5"/><circle cx="122.658" cy="186.499" r="2.5"/><circle cx="130.816" cy="178.426" r="2.5"/><circle cx="130.816" cy="186.499" r="2.5"/><path d="m103.744 191.907h-21.152c-.226 0-.409-.183-.409-.409v-58.757c0-.226.183-.409.409-.409h35.778c.226 0 .409.183.409.409v26.913c0 1.381 1.119 2.5 2.5 2.5s2.5-1.119 2.5-2.5v-26.913c0-2.982-2.427-5.409-5.409-5.409h-35.778c-2.982 0-5.409 2.426-5.409 5.409v58.757c0 2.982 2.426 5.409 5.409 5.409h21.153c1.381 0 2.5-1.119 2.5-2.5s-1.12-2.5-2.501-2.5z"/></g><path d="m100.104 146.065c-1.999 1.608-11.308 9.497-12.009 17.446-.316 3.577 2.22 6.998 5.799 7.292 1.759.145 3.373-.43 4.599-1.458.415-.348 1.044.026.974.564-.215 1.651-.73 3.25-1.519 4.716l-.845 1.569c-.209.388.072.858.512.858h5.731c.44 0 .721-.47.512-.858l-.845-1.569c-.79-1.466-1.305-3.065-1.52-4.716-.07-.537.559-.912.974-.564 1.226 1.027 2.84 1.602 4.599 1.458 3.579-.294 6.115-3.715 5.8-7.292-.701-7.949-10.01-15.838-12.009-17.447-.223-.179-.53-.179-.753.001z" fill="#f9b087"/><circle cx="88.95" cy="138.444" fill="#ebe7f2" r="3.127"/></svg>