<?xml version="1.0" encoding="iso-8859-1"?>
<!-- Generator: Adobe Illustrator 19.0.0, SVG Export Plug-In . SVG Version: 6.00 Build 0)  -->
<svg version="1.1" id="Capa_1" xmlns="http://www.w3.org/2000/svg" xmlns:xlink="http://www.w3.org/1999/xlink" x="0px" y="0px"
	 viewBox="0 0 512 512" style="enable-background:new 0 0 512 512;" xml:space="preserve">
<path style="fill:#FFDE51;" d="M512,256c0,34.179-6.698,66.8-18.86,96.611c-25.443,62.412-74.825,112.525-136.725,138.94
	C325.58,504.717,291.641,512,256,512c-28.923,0-56.728-4.796-82.651-13.636c-18.683-6.374-36.394-14.838-52.861-25.13
	C48.128,428.001,0,347.617,0,256c0-34.179,6.698-66.8,18.86-96.611C41.974,102.713,84.814,56.184,138.846,28.317
	C173.955,10.219,213.776,0,256,0c31.723,0,62.088,5.768,90.122,16.321c18.725,7.032,36.415,16.217,52.757,27.23
	C467.122,89.537,512,167.528,512,256z"/>
<path style="fill:#F9435C;" d="M138.846,28.317c-8.735-1.735-18.077-2.539-27.836-2.539c-52.203,0-92.15,22.549-92.15,83.132v93.435
	c0,60.573,39.946,83.132,92.15,83.132c51.545,0,91.502-22.559,91.502-83.132V108.91C202.512,59.8,176.253,35.683,138.846,28.317z
	 M147.738,202.344c0,23.845-14.179,34.795-36.728,34.795c-22.559,0-36.091-10.951-36.091-34.795V108.91
	c0-23.845,13.531-34.806,36.091-34.806c22.549,0,36.728,10.961,36.728,34.806V202.344z M370.698,0
	c-9.665,0-18.683,4.514-23.197,13.531l-1.379,2.79L120.487,473.234c16.468,10.292,34.179,18.756,52.861,25.13L398.879,43.551
	l1.463-2.957c1.933-3.866,2.581-7.732,2.581-11.598C402.923,11.598,385.526,0,370.698,0z M401.627,239.073
	c-52.193,0-92.15,22.559-92.15,83.132v93.435c0,41.744,18.578,65.202,46.937,75.912c61.9-26.415,111.282-76.528,136.725-138.94
	v-30.407C493.14,261.632,453.183,239.073,401.627,239.073z M438.366,415.639c0,23.845-14.179,34.795-36.739,34.795
	c-22.549,0-36.08-10.951-36.08-34.795v-93.435c0-23.845,13.531-34.795,36.08-34.795c22.559,0,36.739,10.951,36.739,34.795V415.639z"
	/>
<g>
</g>
<g>
</g>
<g>
</g>
<g>
</g>
<g>
</g>
<g>
</g>
<g>
</g>
<g>
</g>
<g>
</g>
<g>
</g>
<g>
</g>
<g>
</g>
<g>
</g>
<g>
</g>
<g>
</g>
</svg>
