<?xml version="1.0" encoding="iso-8859-1"?>
<!-- Generator: Adobe Illustrator 19.0.0, SVG Export Plug-In . SVG Version: 6.00 Build 0)  -->
<svg version="1.1" id="Layer_1" xmlns="http://www.w3.org/2000/svg" xmlns:xlink="http://www.w3.org/1999/xlink" x="0px" y="0px"
	 viewBox="0 0 509.216 509.216" style="enable-background:new 0 0 509.216 509.216;" xml:space="preserve">
<polygon style="fill:#2C3E50;" points="143.584,162.112 253.36,270.272 363.136,162.112 316.032,162.112 316.032,14.272 
	190.688,14.272 190.688,162.112 "/>
<g>
	<path style="fill:#32BEA6;" d="M8.72,447.648c11.552,5.904,29.28,11.808,47.584,11.808c19.696,0,30.112-8.16,30.112-20.544
		c0-11.824-8.992-18.576-31.792-26.736c-31.536-10.992-52.08-28.432-52.08-56.032c0-32.352,27.008-57.136,71.776-57.136
		c21.392,0,37.152,4.512,48.4,9.584l-9.568,34.624c-7.616-3.664-21.104-9.008-39.68-9.008s-27.6,8.448-27.6,18.304
		c0,12.112,10.704,17.456,35.184,26.752c33.504,12.368,49.264,29.824,49.264,56.576c0,31.808-24.48,58.832-76.56,58.832
		c-21.68,0-43.072-5.632-53.76-11.536L8.72,447.648z"/>
	<path style="fill:#32BEA6;" d="M238.4,491.84l-2.528-13.792h-0.848c-8.992,10.992-23.072,16.896-39.408,16.896
		c-27.872,0-44.48-20.272-44.48-42.224c0-35.744,32.096-52.928,80.8-52.64v-1.968c0-7.328-3.936-17.728-25.04-17.728
		c-14.08,0-28.992,4.784-38.016,10.4l-7.872-27.584c9.584-5.344,28.432-12.112,53.488-12.112c45.888,0,60.512,27.024,60.512,59.392
		v47.856c0,13.232,0.56,25.904,1.968,33.504L238.4,491.84L238.4,491.84z M233.344,426.8c-22.512-0.288-39.968,5.072-39.968,21.68
		c0,10.976,7.312,16.32,16.896,16.32c10.688,0,19.424-7.024,22.24-15.744c0.56-2.256,0.848-4.8,0.848-7.328V426.8H233.344z"/>
	<path style="fill:#32BEA6;" d="M308.784,291.968h42.784v199.856h-42.784V291.968z"/>
	<path style="fill:#32BEA6;" d="M419.12,436.656c1.408,17.728,18.864,26.176,38.848,26.176c14.64,0,26.448-1.968,38-5.632
		l5.632,28.992c-14.064,5.632-31.232,8.432-49.808,8.432c-46.736,0-73.472-27.008-73.472-70.096
		c0-34.912,21.664-73.472,69.52-73.472c44.48,0,61.376,34.624,61.376,68.688c0,7.312-0.848,13.792-1.408,16.896H419.12V436.656z
		 M469.504,407.376c0-10.4-4.512-27.856-24.224-27.856c-18.016,0-25.328,16.336-26.448,27.856H469.504z"/>
</g>
<g>
</g>
<g>
</g>
<g>
</g>
<g>
</g>
<g>
</g>
<g>
</g>
<g>
</g>
<g>
</g>
<g>
</g>
<g>
</g>
<g>
</g>
<g>
</g>
<g>
</g>
<g>
</g>
<g>
</g>
</svg>
