<?xml version="1.0" encoding="utf-8"?>
<!-- Generator: Adobe Illustrator 26.3.1, SVG Export Plug-In . SVG Version: 6.00 Build 0)  -->
<svg version="1.1" id="Warstwa_1" xmlns="http://www.w3.org/2000/svg" xmlns:xlink="http://www.w3.org/1999/xlink" x="0px" y="0px"
	 viewBox="0 0 430 430" style="enable-background:new 0 0 430 430;" xml:space="preserve">
<style type="text/css">
	.Styl_x0020_grafiki_x0020_1570{opacity:0.5;fill:#ebe6ef;}
	.Styl_x0020_grafiki_x0020_1571{opacity:0.5;fill:#2ca58d;}
	.Styl_x0020_grafiki_x0020_1572{fill:#92140c;}
	.Styl_x0020_grafiki_x0020_113{fill:#2ca58d;}
	.st0{fill:#646e78;}
	.st1{fill:none;stroke:#646e78;stroke-width:7;stroke-linecap:round;stroke-linejoin:round;stroke-miterlimit:10;}
	.st2{fill:#ebe6ef;}
	.st3{fill:#121331;}
	.st4{fill:#3A3347;}
	.st5{fill:#92140c;}
	.st6{fill:#F24C00;}
	.st7{opacity:0.5;fill:#F24C00;}
	.st8{opacity:0.5;fill:#ebe6ef;}
	.st9{fill:#FFC738;}
	.st10{opacity:0.5;fill:#FFC738;}
	.st11{fill:#121331;stroke:#ebe6ef;stroke-width:7;stroke-linecap:round;stroke-linejoin:round;stroke-miterlimit:10;}
	.st12{fill:#4bb3fd;}
	.st13{opacity:0.5;fill:#4bb3fd;}
	.st14{fill:none;stroke:#121331;stroke-width:7;stroke-linecap:round;stroke-linejoin:round;stroke-miterlimit:10;}
	.st15{opacity:0.5;}
	.st16{fill:#121331;stroke:#4bb3fd;stroke-width:30;stroke-linecap:round;stroke-linejoin:round;stroke-miterlimit:10;}
	.st17{fill:none;stroke:#121331;stroke-width:12;stroke-linecap:round;stroke-linejoin:round;}
	.st18{fill:#2ca58d;}
	.st19{fill:none;stroke:#08A88A;stroke-width:12;stroke-linecap:round;stroke-linejoin:round;stroke-miterlimit:10;}
	.st20{opacity:0.5;fill:#2ca58d;}
	.st21{opacity:0.5;fill:#646e78;}
	.st22{fill:none;stroke:#FFC738;stroke-width:7;stroke-linecap:round;stroke-linejoin:round;stroke-miterlimit:10;}
	.st23{fill:#3A3347;stroke:#121331;stroke-width:7;stroke-linecap:round;stroke-linejoin:round;stroke-miterlimit:10;}
	.st24{opacity:0.5;fill:#3A3347;}
	.st25{fill:url(#SVGID_1_);}
	.st26{fill:url(#SVGID_00000047045266426837867980000009290396666262558605_);}
	.st27{fill:url(#SVGID_00000119802334627412621340000006259374169137361326_);}
	.st28{fill:#B26836;}
	.st29{opacity:0.5;fill:#92140c;}
	.st30{fill:#F28BA8;}
	.st31{fill:none;stroke:#ebe6ef;stroke-width:7;stroke-linecap:round;stroke-linejoin:round;stroke-miterlimit:10;}
	.st32{opacity:0.5;fill:#B26836;}
	.st33{fill:#08A789;}
	.st34{fill:#FFFFFF;}
	.st35{fill:none;stroke:#B26836;stroke-width:7;stroke-linecap:round;stroke-linejoin:round;stroke-miterlimit:10;}
	.st36{opacity:0.99;fill:#ebe6ef;}
	.st37{fill:#F9C9C0;}
	.st38{opacity:0.5;fill:#F9C9C0;}
	.st39{opacity:0.5;fill:#F28BA8;}
	.st40{fill:none;stroke:#08A284;stroke-width:12;stroke-linecap:round;stroke-linejoin:round;stroke-miterlimit:10;}
	.st41{fill:none;stroke:#92140c;stroke-width:7;stroke-linecap:round;stroke-linejoin:round;stroke-miterlimit:10;}
	.st42{fill:none;stroke:#08A688;stroke-width:12;stroke-linecap:round;stroke-linejoin:round;stroke-miterlimit:10;}
	.st43{opacity:0.96;fill:#ebe6ef;}
	.st44{fill:none;stroke:#121331;stroke-width:12;stroke-linecap:round;stroke-linejoin:round;stroke-miterlimit:10;}
	.st45{fill:#08A88A;}
	.st46{fill:none;stroke:#2ca58d;stroke-width:7;stroke-linecap:round;stroke-linejoin:round;stroke-miterlimit:10;}
	.st47{fill:#121331;stroke:#FFC738;stroke-width:7;stroke-linecap:round;stroke-linejoin:round;stroke-miterlimit:10;}
	.st48{fill:#121331;stroke:#92140c;stroke-width:7;stroke-linejoin:round;stroke-miterlimit:10;}
	.st49{fill:none;stroke:#92140c;stroke-width:7;stroke-linejoin:round;stroke-miterlimit:10;}
	.st50{opacity:0.75;fill:#ebe6ef;}
	.st51{fill:#121331;stroke:#646e78;stroke-width:12;stroke-linecap:round;stroke-linejoin:round;stroke-miterlimit:10;}
	.st52{fill:#E94E12;}
	.st53{fill:#E84F16;}
	.st54{opacity:0.5;fill:#FFFFFF;}
</style>
<path class="st12" d="M300.44,295.98c-9.13,0-16.56-7.43-16.56-16.56s7.43-16.56,16.56-16.56S317,270.29,317,279.42
	S309.57,295.98,300.44,295.98z M300.44,269.86c-5.27,0-9.56,4.29-9.56,9.56c0,5.27,4.29,9.56,9.56,9.56s9.56-4.29,9.56-9.56
	C310,274.15,305.71,269.86,300.44,269.86z"/>
<g>
	<path class="st12" d="M300.44,269.86c-1.93,0-3.5-1.57-3.5-3.5v-8.71c0-1.93,1.57-3.5,3.5-3.5s3.5,1.57,3.5,3.5v8.71
		C303.94,268.3,302.38,269.86,300.44,269.86z"/>
</g>
<g>
	<line class="st3" x1="279.74" y1="272.7" x2="288.02" y2="275.39"/>
	<path class="st12" d="M288.02,278.89c-0.36,0-0.72-0.06-1.08-0.17l-8.28-2.69c-1.84-0.6-2.84-2.57-2.25-4.41
		c0.6-1.84,2.57-2.84,4.41-2.25l8.28,2.69c1.84,0.6,2.84,2.57,2.25,4.41C290.87,277.95,289.5,278.89,288.02,278.89z"/>
</g>
<g>
	<line class="st3" x1="287.65" y1="297.03" x2="292.77" y2="289.99"/>
	<path class="st12" d="M287.65,300.53c-0.71,0-1.43-0.22-2.05-0.67c-1.56-1.14-1.91-3.32-0.77-4.89l5.12-7.04
		c1.14-1.56,3.33-1.91,4.89-0.77c1.56,1.14,1.91,3.32,0.77,4.89l-5.12,7.04C289.8,300.03,288.73,300.53,287.65,300.53z"/>
</g>
<g>
	<line class="st3" x1="313.24" y1="297.03" x2="308.12" y2="289.99"/>
	<path class="st12" d="M313.24,300.53c-1.08,0-2.15-0.5-2.83-1.44l-5.12-7.04c-1.14-1.56-0.79-3.75,0.77-4.89
		c1.56-1.14,3.75-0.79,4.89,0.77l5.12,7.04c1.14,1.56,0.79,3.75-0.77,4.89C314.67,300.31,313.95,300.53,313.24,300.53z"/>
</g>
<g>
	<line class="st3" x1="321.14" y1="272.7" x2="312.86" y2="275.39"/>
	<path class="st12" d="M312.86,278.89c-1.48,0-2.85-0.94-3.33-2.42c-0.6-1.84,0.41-3.81,2.25-4.41l8.28-2.69
		c1.84-0.6,3.81,0.41,4.41,2.25c0.6,1.84-0.41,3.81-2.25,4.41l-8.28,2.69C313.59,278.83,313.22,278.89,312.86,278.89z"/>
</g>
<path class="st12" d="M342.67,148.29c-9.13,0-16.56-7.43-16.56-16.56s7.43-16.56,16.56-16.56s16.56,7.43,16.56,16.56
	S351.8,148.29,342.67,148.29z M342.67,122.18c-5.27,0-9.56,4.29-9.56,9.56c0,5.27,4.29,9.56,9.56,9.56s9.56-4.29,9.56-9.56
	C352.23,126.46,347.94,122.18,342.67,122.18z"/>
<g>
	<path class="st12" d="M342.67,122.18c-1.93,0-3.5-1.57-3.5-3.5v-8.71c0-1.93,1.57-3.5,3.5-3.5s3.5,1.57,3.5,3.5v8.71
		C346.17,120.61,344.6,122.18,342.67,122.18z"/>
</g>
<g>
	<line class="st3" x1="321.97" y1="125.01" x2="330.25" y2="127.7"/>
	<path class="st12" d="M330.25,131.2c-0.36,0-0.72-0.06-1.08-0.17l-8.28-2.69c-1.84-0.6-2.84-2.57-2.25-4.41
		c0.6-1.84,2.57-2.84,4.41-2.25l8.28,2.69c1.84,0.6,2.84,2.57,2.25,4.41C333.09,130.26,331.72,131.2,330.25,131.2z"/>
</g>
<g>
	<line class="st3" x1="329.87" y1="149.34" x2="334.99" y2="142.3"/>
	<path class="st12" d="M329.87,152.84c-0.71,0-1.43-0.22-2.05-0.67c-1.56-1.14-1.91-3.32-0.77-4.89l5.12-7.04
		c1.14-1.56,3.33-1.91,4.89-0.77c1.56,1.14,1.91,3.32,0.77,4.89l-5.12,7.04C332.02,152.34,330.95,152.84,329.87,152.84z"/>
</g>
<g>
	<line class="st3" x1="355.46" y1="149.34" x2="350.34" y2="142.3"/>
	<path class="st12" d="M355.46,152.84c-1.08,0-2.15-0.5-2.83-1.44l-5.12-7.04c-1.14-1.56-0.79-3.75,0.77-4.89
		c1.56-1.14,3.75-0.79,4.89,0.77l5.12,7.04c1.14,1.56,0.79,3.75-0.77,4.89C356.9,152.63,356.18,152.84,355.46,152.84z"/>
</g>
<g>
	<line class="st3" x1="363.37" y1="125.01" x2="355.09" y2="127.7"/>
	<path class="st12" d="M355.09,131.2c-1.48,0-2.85-0.94-3.33-2.42c-0.6-1.84,0.41-3.81,2.25-4.41l8.28-2.69
		c1.84-0.6,3.81,0.41,4.41,2.25c0.6,1.84-0.41,3.81-2.25,4.41l-8.28,2.69C355.81,131.14,355.44,131.2,355.09,131.2z"/>
</g>
<path class="st2" d="M121.9,168.36h26.21c2.48,0,4.91,0.18,7.31,0.5h0.16v-57.94c0-1.66-1.34-3-3-3h-35.14c-1.66,0-3,1.34-3,3v57.94
	h0.16C116.98,168.54,119.42,168.36,121.9,168.36z"/>
<path class="Styl_x0020_grafiki_x0020_113" d="M121.9,168.36h26.21c30.52,0,55.26,24.74,55.26,55.26v157.56
	c0,11.2-9.08,20.28-20.28,20.28H86.92c-11.2,0-20.28-9.08-20.28-20.28V223.62C66.63,193.1,91.38,168.36,121.9,168.36z"/>
<g>
	<path class="st0" d="M155.57,133.34h-9.74c-1.93,0-3.5-1.57-3.5-3.5s1.57-3.5,3.5-3.5h9.74c1.93,0,3.5,1.57,3.5,3.5
		S157.51,133.34,155.57,133.34z"/>
</g>
<g>
	<path class="st2" d="M215.79,135.84h-0.5c-3.31,0-6-2.69-6-6s2.69-6,6-6h0.5c3.31,0,6,2.69,6,6S219.11,135.84,215.79,135.84z"/>
	<path class="st2" d="M269.19,135.84h-1.03c-3.31,0-6-2.69-6-6s2.69-6,6-6h1.03c3.31,0,6,2.69,6,6S272.5,135.84,269.19,135.84z
		 M242.49,135.84h-1.03c-3.31,0-6-2.69-6-6s2.69-6,6-6h1.03c3.31,0,6,2.69,6,6S245.8,135.84,242.49,135.84z"/>
	<path class="st2" d="M295.36,135.84h-0.5c-3.31,0-6-2.69-6-6s2.69-6,6-6h0.5c3.31,0,6,2.69,6,6S298.68,135.84,295.36,135.84z"/>
</g>
<g>
	<path class="st2" d="M190.2,110.31c-1.94,0-3.85-0.94-5-2.68c-1.83-2.76-1.08-6.48,1.68-8.32l0.42-0.28
		c2.76-1.83,6.48-1.08,8.32,1.68c1.83,2.76,1.08,6.48-1.68,8.32l-0.42,0.28C192.5,109.98,191.34,110.31,190.2,110.31z"/>
	<path class="st2" d="M209.12,97.72c-1.94,0-3.84-0.94-5-2.68c-1.84-2.76-1.09-6.48,1.67-8.32l0.74-0.49
		c2.76-1.83,6.48-1.09,8.32,1.67c1.84,2.76,1.09,6.48-1.67,8.32l-0.74,0.49C211.41,97.39,210.26,97.72,209.12,97.72z M228.35,84.91
		c-1.94,0-3.84-0.94-5-2.68c-1.84-2.76-1.09-6.48,1.67-8.32l0.74-0.49c2.76-1.84,6.48-1.09,8.32,1.67c1.84,2.76,1.09,6.48-1.67,8.32
		l-0.74,0.49C230.65,84.58,229.49,84.91,228.35,84.91z"/>
	<path class="st2" d="M247.58,72.1c-1.94,0-3.84-0.94-5-2.68c-1.84-2.76-1.09-6.48,1.67-8.32l0.42-0.28
		c2.76-1.84,6.48-1.09,8.32,1.67c1.84,2.76,1.09,6.48-1.67,8.32l-0.42,0.28C249.88,71.78,248.73,72.1,247.58,72.1z"/>
</g>
<g>
	<path class="st2" d="M190.55,159.33c-1.52,0-3.05-0.58-4.22-1.73l-0.36-0.35c-2.36-2.33-2.38-6.13-0.05-8.48
		c2.33-2.36,6.13-2.38,8.49-0.05l0.36,0.35c2.36,2.33,2.38,6.13,0.05,8.48C193.65,158.73,192.1,159.33,190.55,159.33z"/>
	<path class="st2" d="M259.35,227.31c-1.52,0-3.05-0.58-4.22-1.73l-0.66-0.65c-2.36-2.33-2.38-6.13-0.05-8.49
		c2.33-2.36,6.13-2.38,8.49-0.05l0.66,0.65c2.36,2.33,2.38,6.13,0.05,8.49C262.45,226.71,260.9,227.31,259.35,227.31z
		 M242.15,210.31c-1.52,0-3.05-0.58-4.22-1.73l-0.66-0.65c-2.36-2.33-2.38-6.13-0.05-8.49c2.33-2.36,6.13-2.38,8.48-0.05l0.66,0.65
		c2.36,2.33,2.38,6.13,0.05,8.49C245.24,209.72,243.7,210.31,242.15,210.31z M224.95,193.32c-1.52,0-3.05-0.58-4.22-1.73l-0.66-0.65
		c-2.36-2.33-2.38-6.13-0.05-8.49c2.33-2.36,6.13-2.38,8.49-0.05l0.66,0.65c2.36,2.33,2.38,6.13,0.05,8.49
		C228.05,192.72,226.5,193.32,224.95,193.32z M207.75,176.32c-1.52,0-3.05-0.58-4.22-1.73l-0.66-0.65
		c-2.36-2.33-2.38-6.13-0.05-8.49c2.33-2.36,6.13-2.38,8.49-0.05l0.66,0.65c2.36,2.33,2.38,6.13,0.05,8.49
		C210.85,175.73,209.3,176.32,207.75,176.32z"/>
	<path class="st2" d="M276.24,244c-1.52,0-3.05-0.58-4.22-1.73l-0.36-0.35c-2.36-2.33-2.38-6.13-0.05-8.48
		c2.33-2.36,6.13-2.38,8.49-0.05l0.36,0.35c2.36,2.33,2.38,6.13,0.05,8.48C279.34,243.41,277.79,244,276.24,244z"/>
</g>
<path class="st12" d="M291.21,66.86c-9.13,0-16.56-7.43-16.56-16.56s7.43-16.56,16.56-16.56s16.56,7.43,16.56,16.56
	S300.34,66.86,291.21,66.86z M291.21,40.74c-5.27,0-9.56,4.29-9.56,9.56c0,5.27,4.29,9.56,9.56,9.56s9.56-4.29,9.56-9.56
	C300.77,45.03,296.48,40.74,291.21,40.74z"/>
<g>
	<path class="st12" d="M291.21,40.74c-1.93,0-3.5-1.57-3.5-3.5v-8.71c0-1.93,1.57-3.5,3.5-3.5s3.5,1.57,3.5,3.5v8.71
		C294.71,39.17,293.14,40.74,291.21,40.74z"/>
</g>
<g>
	<line class="st3" x1="270.51" y1="43.58" x2="278.79" y2="46.27"/>
	<path class="st12" d="M278.79,49.77c-0.36,0-0.72-0.06-1.08-0.17l-8.28-2.69c-1.84-0.6-2.84-2.57-2.25-4.41
		c0.6-1.84,2.57-2.84,4.41-2.25l8.28,2.69c1.84,0.6,2.84,2.57,2.25,4.41C281.64,48.83,280.27,49.77,278.79,49.77z"/>
</g>
<g>
	<line class="st3" x1="278.42" y1="67.91" x2="283.53" y2="60.87"/>
	<path class="st12" d="M278.41,71.41c-0.71,0-1.43-0.22-2.05-0.67c-1.56-1.14-1.91-3.32-0.77-4.89l5.12-7.04
		c1.14-1.56,3.32-1.91,4.89-0.77c1.56,1.14,1.91,3.32,0.77,4.89l-5.12,7.04C280.56,70.91,279.5,71.41,278.41,71.41z"/>
</g>
<g>
	<line class="st3" x1="304" y1="67.91" x2="298.88" y2="60.87"/>
	<path class="st12" d="M304,71.41c-1.08,0-2.15-0.5-2.83-1.44l-5.12-7.04c-1.14-1.56-0.79-3.75,0.77-4.89
		c1.56-1.14,3.75-0.79,4.89,0.77l5.12,7.04c1.14,1.56,0.79,3.75-0.77,4.89C305.44,71.19,304.72,71.41,304,71.41z"/>
</g>
<g>
	<line class="st3" x1="311.91" y1="43.58" x2="303.63" y2="46.27"/>
	<path class="st12" d="M303.63,49.77c-1.48,0-2.85-0.94-3.33-2.42c-0.6-1.84,0.41-3.81,2.25-4.41l8.28-2.69
		c1.84-0.6,3.81,0.41,4.41,2.25c0.6,1.84-0.41,3.81-2.25,4.41l-8.28,2.69C304.35,49.71,303.99,49.77,303.63,49.77z"/>
</g>
<g>
	<g>
		<path class="Styl_x0020_grafiki_x0020_1572" d="M171.88,275.93v17.96c0,1.55-1.26,2.8-2.8,2.8h-20.42c-1.03,0-1.87,0.84-1.87,1.87
			v20.42c0,1.55-1.26,2.8-2.8,2.8h-17.97c-1.55,0-2.8-1.26-2.8-2.8V299.5c0-1.55-1.26-2.8-2.8-2.8h-19.48c-1.55,0-2.8-1.26-2.8-2.8
			v-17.96c0-1.55,1.26-2.8,2.8-2.8h19.48c1.55,0,2.8-1.26,2.8-2.8v-19.48c0-1.55,1.26-2.8,2.8-2.8h17.97c1.55,0,2.8,1.26,2.8,2.8
			v19.48c0,1.55,1.26,2.8,2.8,2.8h19.48C170.63,273.13,171.88,274.38,171.88,275.93z"/>
	</g>
	<g>
		<path class="Styl_x0020_grafiki_x0020_1572" d="M171.88,275.93v17.96c0,1.55-1.26,2.8-2.8,2.8h-20.42c-1.03,0-1.87,0.84-1.87,1.87
			v20.42c0,1.55-1.26,2.8-2.8,2.8h-17.97c-1.55,0-2.8-1.26-2.8-2.8V299.5c0-1.55-1.26-2.8-2.8-2.8h-19.48c-1.55,0-2.8-1.26-2.8-2.8
			v-17.96c0-1.55,1.26-2.8,2.8-2.8h19.48c1.55,0,2.8-1.26,2.8-2.8v-19.48c0-1.55,1.26-2.8,2.8-2.8h17.97c1.55,0,2.8,1.26,2.8,2.8
			v19.48c0,1.55,1.26,2.8,2.8,2.8h19.48C170.63,273.13,171.88,274.38,171.88,275.93z"/>
	</g>
</g>
<path class="Styl_x0020_grafiki_x0020_1571" d="M82.06,381.18V223.62c0.1-4.48,1.01-23.53,16.19-39.08
	c11.66-11.94,25.28-15.21,30.48-16.19c-2.28,0-4.55,0-6.83,0c-30.52,0-55.26,24.74-55.26,55.26v157.56
	c0,11.2,9.08,20.28,20.28,20.28h15.43C91.14,401.46,82.06,392.38,82.06,381.18z"/>
<path class="Styl_x0020_grafiki_x0020_1570" d="M121.9,168.36h6.83v-57.44c0-1.66,1.34-3,3-3h-14.29c-1.66,0-3,1.34-3,3v57.94h0.16
	C116.99,168.54,119.42,168.36,121.9,168.36z"/>
</svg>
