<svg xmlns="http://www.w3.org/2000/svg" viewBox="0 0 430 430">
  <defs>
    <style>
      .cls-1 {
        isolation: isolate;
      }

      .cls-2 {
        fill: #ebe6ef;
      }

      .cls-3, .cls-4 {
        fill: #4bb3fd;
      }

      .cls-4 {
        mix-blend-mode: multiply;
        opacity: 0.5;
      }

      .cls-5 {
        fill: #121331;
      }
    </style>
  </defs>
  <g class="cls-1">
    <g id="Warstwa_1" data-name="Warstwa 1">
      <g>
        <path class="cls-2" d="M278.69,326.09l43.74-42.24a26.69,26.69,0,0,1,37.73.66l1.29,1.34-82.13,79.31L278,363.83A26.69,26.69,0,0,1,278.69,326.09Z"/>
        <path class="cls-2" d="M120.91,160l-8.65-9a16.09,16.09,0,0,1,.4-22.75L130.57,111a16.11,16.11,0,0,1,22.76.4l8.65,9Z"/>
        <rect class="cls-2" x="256.9" y="267.56" width="57.09" height="43.52" transform="translate(-120.87 279.49) rotate(-44)"/>
        <rect class="cls-3" x="163.07" y="114.17" width="85.63" height="185.54" transform="translate(-85.96 201.1) rotate(-44)"/>
        <polygon class="cls-4" points="123.34 157.66 110.63 169.94 239.51 303.4 252.34 291.01 123.34 157.66"/>
        <path class="cls-2" d="M121.62,123.17a3.48,3.48,0,0,1-2.52-1.07L69.53,70.77a3.5,3.5,0,1,1,5-4.86l49.57,51.33a3.49,3.49,0,0,1-2.51,5.93Z"/>
        <path class="cls-5" d="M364,283.42l-1.29-1.34a30,30,0,0,0-21.19-9.21H341a30,30,0,0,0-19.74,7.37l-25.4-26.31,7.75-7.48a3.5,3.5,0,0,0,1.07-2.46,3.56,3.56,0,0,0-1-2.49l-43-44.48h0l-43-44.48h0l-21.47-22.24h0L174.76,108a3.5,3.5,0,0,0-4.95-.09l-7.75,7.49L155.85,109a19.63,19.63,0,0,0-27.71-.49l-6.44,6.22L74.56,65.91a3.5,3.5,0,1,0-5,4.86l47.14,48.81-6.44,6.22a19.61,19.61,0,0,0-.49,27.71l6.22,6.43-7.75,7.49a3.51,3.51,0,0,0-.08,4.95L237,305.84a3.5,3.5,0,0,0,5,.09l7.75-7.49,25.4,26.31a30.23,30.23,0,0,0,.4,41.51l1.3,1.33a3.49,3.49,0,0,0,4.94.09l82.14-79.31a3.51,3.51,0,0,0,1.06-2.46A3.44,3.44,0,0,0,364,283.42ZM114.78,148.64a12.59,12.59,0,0,1,.31-17.8L133,113.54a12.6,12.6,0,0,1,17.8.31l6.22,6.44-2.18,2.1L121,155.08ZM239.62,298.46,115.59,170l56.57-54.62,16.62,17.21-18,17.4a3.5,3.5,0,0,0,4.86,5l18-17.4,16.62,17.21-18,17.4a3.5,3.5,0,1,0,4.86,5l18-17.39,16.62,17.21-18,17.39a3.5,3.5,0,0,0,4.87,5l18-17.4,16.62,17.21-18,17.4a3.5,3.5,0,0,0,4.87,5l18-17.39,16.62,17.2-18,17.4a3.5,3.5,0,0,0,4.87,5l18-17.4,16.62,17.21Zm51.16-39.67,25.36,26.27-36,34.79-25.36-26.27ZM279.45,360.17a23.21,23.21,0,0,1,1.67-31.56h0l1.34-1.29h0l41.07-39.66h0l1.33-1.29a23.07,23.07,0,0,1,16.1-6.51h.41a23,23,0,0,1,15.09,5.93Z"/>
      </g>
    </g>
  </g>
</svg>
